<svg width="9" height="9" viewBox="0 0 9 9" fill="none" xmlns="http://www.w3.org/2000/svg">
<g clip-path="url(#clip0_3_5)">
<path d="M4.5 6.375C5.01875 6.375 5.46094 6.19219 5.82656 5.82656C6.19219 5.46094 6.375 5.01875 6.375 4.5C6.375 3.98125 6.19219 3.53906 5.82656 3.17344C5.46094 2.80781 5.01875 2.625 4.5 2.625C3.98125 2.625 3.53906 2.80781 3.17344 3.17344C2.80781 3.53906 2.625 3.98125 2.625 4.5C2.625 5.01875 2.80781 5.46094 3.17344 5.82656C3.53906 6.19219 3.98125 6.375 4.5 6.375ZM4.5 8.25C3.98125 8.25 3.49375 8.15156 3.0375 7.95469C2.58125 7.75781 2.18437 7.49062 1.84687 7.15312C1.50937 6.81562 1.24219 6.41875 1.04531 5.9625C0.848437 5.50625 0.75 5.01875 0.75 4.5C0.75 3.98125 0.848437 3.49375 1.04531 3.0375C1.24219 2.58125 1.50937 2.18437 1.84687 1.84687C2.18437 1.50937 2.58125 1.24219 3.0375 1.04531C3.49375 0.848437 3.98125 0.75 4.5 0.75C5.01875 0.75 5.50625 0.848437 5.9625 1.04531C6.41875 1.24219 6.81562 1.50937 7.15312 1.84687C7.49062 2.18437 7.75781 2.58125 7.95469 3.0375C8.15156 3.49375 8.25 3.98125 8.25 4.5C8.25 5.01875 8.15156 5.50625 7.95469 5.9625C7.75781 6.41875 7.49062 6.81562 7.15312 7.15312C6.81562 7.49062 6.41875 7.75781 5.9625 7.95469C5.50625 8.15156 5.01875 8.25 4.5 8.25ZM4.5 7.5C5.3375 7.5 6.04687 7.20937 6.62812 6.62812C7.20937 6.04687 7.5 5.3375 7.5 4.5C7.5 3.6625 7.20937 2.95312 6.62812 2.37187C6.04687 1.79062 5.3375 1.5 4.5 1.5C3.6625 1.5 2.95312 1.79062 2.37187 2.37187C1.79062 2.95312 1.5 3.6625 1.5 4.5C1.5 5.3375 1.79062 6.04687 2.37187 6.62812C2.95312 7.20937 3.6625 7.5 4.5 7.5Z" fill="white"/>
</g>
<defs>
<clipPath id="clip0_3_5">
<rect width="9" height="9" fill="white"/>
</clipPath>
</defs>
</svg>
