<svg width="114" height="98" viewBox="0 0 114 98" fill="none" xmlns="http://www.w3.org/2000/svg">
<path d="M15.5455 67.0526C11.2273 67.0526 7.55682 65.5482 4.53409 62.5395C1.51136 59.5307 0 55.8772 0 51.5789C0 47.2807 1.51136 43.6272 4.53409 40.6184C7.55682 37.6096 11.2273 36.1053 15.5455 36.1053V25.7895C15.5455 22.9526 16.5602 20.5241 18.5898 18.5039C20.6193 16.4838 23.0591 15.4737 25.9091 15.4737H41.4545C41.4545 11.1754 42.9659 7.52193 45.9886 4.51316C49.0114 1.50439 52.6818 0 57 0C61.3182 0 64.9886 1.50439 68.0114 4.51316C71.0341 7.52193 72.5455 11.1754 72.5455 15.4737H88.0909C90.9409 15.4737 93.3807 16.4838 95.4102 18.5039C97.4398 20.5241 98.4545 22.9526 98.4545 25.7895V36.1053C102.773 36.1053 106.443 37.6096 109.466 40.6184C112.489 43.6272 114 47.2807 114 51.5789C114 55.8772 112.489 59.5307 109.466 62.5395C106.443 65.5482 102.773 67.0526 98.4545 67.0526V87.6842C98.4545 90.521 97.4398 92.9496 95.4102 94.9697C93.3807 96.9899 90.9409 98 88.0909 98H25.9091C23.0591 98 20.6193 96.9899 18.5898 94.9697C16.5602 92.9496 15.5455 90.521 15.5455 87.6842V67.0526ZM41.4545 56.7368C43.6136 56.7368 45.4489 55.9846 46.9602 54.4803C48.4716 52.9759 49.2273 51.1491 49.2273 49C49.2273 46.8509 48.4716 45.0241 46.9602 43.5197C45.4489 42.0154 43.6136 41.2632 41.4545 41.2632C39.2955 41.2632 37.4602 42.0154 35.9489 43.5197C34.4375 45.0241 33.6818 46.8509 33.6818 49C33.6818 51.1491 34.4375 52.9759 35.9489 54.4803C37.4602 55.9846 39.2955 56.7368 41.4545 56.7368ZM72.5455 56.7368C74.7045 56.7368 76.5398 55.9846 78.0511 54.4803C79.5625 52.9759 80.3182 51.1491 80.3182 49C80.3182 46.8509 79.5625 45.0241 78.0511 43.5197C76.5398 42.0154 74.7045 41.2632 72.5455 41.2632C70.3864 41.2632 68.5511 42.0154 67.0398 43.5197C65.5284 45.0241 64.7727 46.8509 64.7727 49C64.7727 51.1491 65.5284 52.9759 67.0398 54.4803C68.5511 55.9846 70.3864 56.7368 72.5455 56.7368ZM36.2727 77.3684H77.7273V67.0526H36.2727V77.3684ZM25.9091 87.6842H88.0909V25.7895H25.9091V87.6842Z" fill="black"/>
</svg>
